<?xml version="1.0" encoding="utf-8"?>
<!-- Generator: Adobe Illustrator 18.1.0, SVG Export Plug-In . SVG Version: 6.00 Build 0)  -->
<svg version="1.1" id="Layer_1" xmlns="http://www.w3.org/2000/svg" xmlns:xlink="http://www.w3.org/1999/xlink" x="0px" y="0px"
	 viewBox="0 0 500 500" enable-background="new 0 0 500 500" xml:space="preserve">
<g>
	<path fill="#010101" d="M250,0C112,0,0,112,0,250s111.9,250,250,250s250-112,250-250S388,0,250,0z M250,470.9
		c-121.9,0-221-99.1-221-220.9c0-121.9,99.1-221,221-221s221,99.1,221,221S371.9,470.9,250,470.9z"/>
	<path fill="#010101" d="M250,169.2c-44.7,0-80.8,36.2-80.8,80.8s36.2,80.8,80.8,80.8s80.8-36.2,80.8-80.8
		C331,205.3,294.7,169.2,250,169.2z M250,316.4c-36.6,0-66.4-29.7-66.4-66.4s29.7-66.4,66.4-66.4c36.6,0,66.4,29.7,66.4,66.4
		C316.4,286.6,286.6,316.4,250,316.4z"/>
	<path fill="#010101" d="M250,215.6c-18.9,0-34.4,15.3-34.4,34.4c0,18.9,15.3,34.4,34.4,34.4c18.9,0,34.4-15.3,34.4-34.4
		C284.4,231.1,268.9,215.6,250,215.6z M250,277c-14.9,0-27-12.1-27-27s12.1-27,27-27s27,12.1,27,27S264.9,277,250,277z"/>
	<path fill="#010101" d="M339.2,188.5c13.3,17.1,21.1,38.4,21.1,61.5s-8,44.5-21.1,61.5l5.8,4.5c14.2-18.3,22.7-41.1,22.7-66
		c0-24.8-8.5-47.8-22.7-66L339.2,188.5z"/>
	<path fill="#010101" d="M373.7,161.8l-5.9,4.5c17.9,23.2,28.7,52.1,28.7,83.7s-10.8,60.4-28.7,83.5l5.9,4.5
		c18.9-24.3,30.3-54.8,30.3-88.1C403.8,216.8,392.5,186.3,373.7,161.8z"/>
	<path fill="#010101" d="M404.1,138.4l-5.8,4.5C421.2,172.5,435,209.7,435,250s-13.8,77.5-36.7,107.1l5.8,4.5
		c23.8-30.9,38.1-69.5,38.1-111.6C442.2,208,427.9,169.3,404.1,138.4z"/>
</g>
</svg>
